<?xml version="1.0" encoding="utf-8"?>
<!-- Generator: Adobe Illustrator 24.0.1, SVG Export Plug-In . SVG Version: 6.00 Build 0)  -->
<svg version="1.1" id="Layer_1" xmlns="http://www.w3.org/2000/svg" xmlns:xlink="http://www.w3.org/1999/xlink" x="0px" y="0px"
	 width="942.5px" height="246.1px" viewBox="0 0 942.5 246.1" style="enable-background:new 0 0 942.5 246.1;" xml:space="preserve"
	>
<style type="text/css">
	.st0{fill:#FFFFFF;}
</style>
<g>
	<g>
		<g>
			<path class="st0" d="M288.3,1.8v22.5h-23.2V1.8H288.3z M288.3,43v119.2h-23.2V43H288.3z"/>
			<path class="st0" d="M427.6,43v122.5c0,21.2-5.5,34-19.9,43.3c-11.9,7.7-24.3,9.5-35.8,9.5c-10.8,0-22.7-3.5-30.7-9.9
				c-6.4-3.5-12.6-9.3-16.6-15.9l21.4-10.4c1.3,2.6,3.3,4.6,5.5,6.4c5.1,5.3,13.5,7.9,20.5,7.9c8.6,0,17.4-2.4,23.4-7.3
				c7.1-5.7,9-12.1,8.8-24.1v-11.5c-9.3,7.9-21.4,11.9-34.9,11.9c-16.1,0-31.3-6.8-41.3-19.2c-9.9-12.4-13.5-27.8-13.5-43.7
				c0-16.1,4-31.8,13.5-43.9c9.9-12.4,25.4-19,41.7-19c14.3,0,27.8,5.3,37.3,14.6V43H427.6z M398.2,133.7c6.4-7.7,9-19.4,9-31.1
				c0-11.9-2.6-23.4-9-31.1c-5.7-7.5-14.8-10.8-24.7-10.8c-11,0-20.5,3.5-26.5,12.1c-5.5,7.5-7.7,18.3-7.7,29.8
				c0,11.3,2,22.1,7.5,29.6c6,8.6,15.9,12.4,25.8,12.4C383,144.6,392.1,141,398.2,133.7z"/>
			<path class="st0" d="M483.9,1.8v22.5h-23.2V1.8H483.9z M483.9,43v119.2h-23.2V43H483.9z"/>
			<path class="st0" d="M549.6,114.1c0,9.7-0.4,16.8,2.4,21.4c2.9,5.1,8.2,7.5,13.5,7.9c6.2,0.7,13.5,0.2,19.6-0.9v19.6
				c-8.6,2.2-22.1,2.2-30.2,0.9c-10.8-1.8-18.1-5.5-23.6-15c-5.7-9-4.6-19.6-4.6-32.7V61.6h-23V43h23V9.9h23V43h35.5v18.5h-35.5
				v52.6H549.6z"/>
			<path class="st0" d="M686.7,162.2v-17c-11.3,15-24.7,20.3-43.9,20.3c-23.4,0-39.3-14.1-39.3-36.4c0-15.2,6-26.3,21-33.5
				c14.8-7.1,39.1-9.5,59.4-12.6c-1.1-13.9-11.3-21.4-26.7-21.4c-12.4,0-23.4,3.5-32.4,13.5l-13.9-15.2c12.4-13.5,28-20.1,48.3-20.1
				c12.4,0,24.9,5.1,33.1,12.1C703.4,61.4,707,75.5,707,90v72.2H686.7z M684,101.7c-13.2,2-26.3,4.4-35.5,6.4
				c-11.9,2.6-22.1,8.8-22.1,19.2c0,11,9,18.5,21.2,18.5c14.3,0,25.8-6.4,32-17C684.2,121.2,684,112.3,684,101.7z"/>
			<path class="st0" d="M735.7,162.2V0h23.2v162.2H735.7z"/>
			<path class="st0" d="M815.1,1.8v22.5h-23.2V1.8H815.1z M815.1,43v119.2h-23.2V43H815.1z"/>
			<path class="st0" d="M919.9,79.7c-5.1-13.5-16.3-19.4-29.6-19.6c-11.9-0.4-23.8,4.9-23.8,13.2c0,7.5,6.6,10.2,16.3,12.8
				c6.6,2,13.7,4,23.2,6.6c21.2,5.7,36.4,17.4,36.4,36.6c0,11-6.2,22.3-15.9,28.2c-9.9,6.2-20.5,7.9-32,7.9
				c-15.7,0-29.4-3.5-40.2-14.8c-7.1-7.5-10.8-15.4-12.8-23l21-6c1.8,5.5,4.4,11,8.4,14.8c6.2,6.2,15,8.6,23.8,8.6
				c6.4,0,15.7-1.5,20.3-4.9c4-2.9,6.2-6.4,6.2-11c0-9.5-10.2-12.4-20.7-15.4c-17-4.9-21.8-6.2-27.6-8.2c-7.1-2.6-15-6.2-20.5-11.9
				c-5.1-5.5-7.1-13.9-7.1-19.6c0-13.7,8.8-24.9,20.5-30c8.8-3.8,17.4-4.4,25.8-4.4c8.2,0,17.2,1.8,25.2,6
				c11.5,5.5,21,16.8,24.9,28.7L919.9,79.7z"/>
		</g>
	</g>
	<g>
		<g>
			<path class="st0" d="M17.9,128.3c-5.4,7.7-10.8,12-17.9,12v21.9c6.4,0,12.4-1.5,17.9-4.5V128.3z"/>
			<path class="st0" d="M216.8,24.5C204.3,10.4,185.9,3.3,165,3.3h-54.5v57.3c3.4,2.7,6.6,5.8,9.6,9.5c5.5,6.6,10,14.2,14,21.9V25.4
				l30.9-0.2c13.7,0.4,25.4,4.2,34.6,14.6c9.5,11,13.2,27.1,13,43.5c-0.2,15.9-3.5,31.6-13,42.8c-8.8,9.7-21.4,14.1-34.9,14.3h-5.5
				l0,0c-12.3,0-19.5-12.8-30-33.8c-5.2-10.3-10.5-21-17.6-29.5c-9.1-10.9-19.8-16.4-32-16.4c-6.4,0-12.4,1.5-17.9,4.5v29.4
				c5.4-7.7,10.8-12,17.9-12c12.3,0,19.5,12.8,30,33.8c5.2,10.3,10.5,21,17.6,29.5c9.1,10.9,19.8,16.4,32,16.4l0,0h5.5
				c19.9,0,39.1-6.6,52.3-21.2c13.5-14.6,20.1-36.6,20.1-58C237.1,61.1,231.2,39.7,216.8,24.5z"/>
		</g>
		<path class="st0" d="M128.3,162.2c-3.3-2.6-6.5-5.8-9.5-9.4c-0.4-0.5-0.8-1-1.2-1.4c-0.1-0.2-0.2-0.3-0.4-0.5
			c-0.3-0.3-0.5-0.7-0.8-1c-0.1-0.2-0.3-0.4-0.4-0.6c-0.2-0.3-0.5-0.6-0.7-0.9c-0.1-0.2-0.3-0.4-0.4-0.6c-0.2-0.3-0.4-0.6-0.6-0.9
			c-0.1-0.2-0.3-0.4-0.4-0.6c-0.2-0.3-0.4-0.6-0.6-0.9c-0.1-0.2-0.3-0.4-0.4-0.6c-0.2-0.3-0.4-0.6-0.6-0.9c-0.1-0.2-0.3-0.4-0.4-0.6
			c-0.2-0.3-0.4-0.7-0.6-1c-0.1-0.2-0.2-0.4-0.4-0.6c-0.3-0.4-0.5-0.9-0.8-1.3H90.6H50.8v-2.6v-77h-2.1H9H0v21.9h9h19.9v2.6v77H31
			h59.6h28.9l0,0L128.3,162.2L128.3,162.2z"/>
	</g>
</g>
<g>
	<g>
		<path class="st0" d="M522.5,201.2l-13.3,43.7H501l-9.3-30.1l-9.9,30.1h-7.6l-13.3-43.8l9.6,0.1l8.6,28l8.6-28h8.2l8.7,28l8.5-28
			H522.5z"/>
		<path class="st0" d="M538.6,232.9c2,2.7,5.3,4,8.8,4c2.7,0,4.9-0.6,6.7-2c1.8-1.4,2.8-2.8,3.5-4.2l9.6,2.9c-1.5,3.6-4.3,7-7.7,9.1
			c-3.3,2.1-7.6,3.3-11.6,3.3c-6.5,0-13.1-2.5-17-7.3c-3.6-4.4-5.3-9.8-5.3-15.3c0-6.2,1.7-12.1,5.3-16.3c4-4.8,10-7.2,16.5-7.2
			c6.4,0,11.6,2.1,15.5,6.9c4.2,5,5.3,11.6,4.8,18.9h-31.5C536.5,228.3,537.1,230.9,538.6,232.9z M538.7,212.4
			c-1.3,1.7-2,3.6-2.3,5.7H558c-0.2-2.3-0.7-4.2-2-6c-1.9-2.4-5.2-3.6-8.5-3.6C544.2,208.5,541.1,209.5,538.7,212.4z"/>
		<path class="st0" d="M618.8,223c0,5.9-1.4,11.5-5,16.1c-3.6,4.4-9.3,7-15.1,7c-5.1,0-9.7-1.5-13.2-4.5v3.3h-8.7v-58.2h9.8v17
			c3.3-2.3,7.4-3.6,11.7-3.6c6,0,11.7,2.3,15.4,7C617.2,211.3,618.8,217,618.8,223z M608.4,223c0-4-0.8-7.6-2.6-10.1
			c-2-3-5.2-4.2-9-4.2c-3.3,0-6.3,1.1-8.2,3.5c-2.2,2.7-3.2,6.7-3.2,10.8c0,4.1,1,8.3,3.2,10.8c2.1,2.4,5.1,3.6,8.6,3.6
			c3.4,0,6.8-1.2,8.8-4.2C607.8,230.6,608.4,226.9,608.4,223z"/>
		<path class="st0" d="M685.8,223c0,5.9-1.4,11.5-5,16.1c-3.6,4.4-9.3,7-15.1,7c-5.1,0-9.7-1.5-13.2-4.5v3.3h-8.7v-58.2h9.8v17
			c3.3-2.3,7.4-3.6,11.7-3.6c6,0,11.7,2.3,15.4,7C684.2,211.3,685.8,217,685.8,223z M675.5,223c0-4-0.8-7.6-2.6-10.1
			c-2-3-5.2-4.2-9-4.2c-3.3,0-6.3,1.1-8.2,3.5c-2.2,2.7-3.2,6.7-3.2,10.8c0,4.1,1,8.3,3.2,10.8c2.1,2.4,5.1,3.6,8.6,3.6
			c3.4,0,6.8-1.2,8.8-4.2C674.8,230.6,675.5,226.9,675.5,223z"/>
		<path class="st0" d="M734,201.2v43.7h-8.7v-4.9c-0.3,0.3-0.6,0.7-1,1.1c-2.8,3.3-7.2,4.8-11.2,4.9c-4.9,0.3-9.9-0.5-14.1-4.4
			c-5.1-4.6-5.3-12.3-5.3-19.3v-21.1h9.9v20.7c0,5.1,0.6,9.9,3.5,12.5c1.7,1.7,4.2,2.6,7.3,2.5c2.2-0.1,4.1-0.8,5.7-2
			c1.7-1.4,2.9-3.5,3.4-6.1c0.5-2.1,0.5-5.5,0.5-8.6v-0.1v-19H734z"/>
		<path class="st0" d="M755.9,185.7v9h-9.7v-9H755.9z M755.9,201.2v43.7h-9.7v-43.7H755.9z"/>
		<path class="st0" d="M768,244.8v-59.4h9.7v59.4H768z"/>
		<path class="st0" d="M828.6,186.6v58.2H820v-3.4c-3.5,3.2-8.2,4.6-13.3,4.6c-5.8,0-11.5-2.5-15.1-7c-3.6-4.6-5-10.2-5-16.1
			c0-6,1.6-11.7,5-16.1c3.7-4.6,9.5-7,15.4-7c4.4,0,8.4,1.4,11.7,3.6v-17H828.6z M819.9,223c0-4.1-1-8.2-3.2-10.8
			c-1.9-2.3-4.9-3.5-8.3-3.5c-3.8,0-7,1.2-9,4.2c-1.8,2.5-2.6,6.1-2.6,10.1c0,3.9,0.6,7.6,2.4,10.1c2,3,5.4,4.2,8.8,4.2
			c3.5,0,6.5-1.1,8.6-3.6C819,231.3,819.9,227.1,819.9,223z"/>
		<path class="st0" d="M884.8,216.5c-0.6-2-1.9-4-3.6-5.4c-1.8-1.4-3.9-2-6.1-2c-3.6,0-6.5,1.3-8.4,4c-2.1,2.7-2.7,6.3-2.7,9.9
			c0,3.6,0.6,7.2,2.7,9.9c1.9,2.7,4.9,4,8.4,4c2.2,0,4.4-0.5,6.2-1.9c1.7-1.4,2.6-3,3.2-4.9l9.9,2.2c-1.2,4-3.7,7.8-7,10.3
			c-3.8,2.7-7.1,3.6-12.4,3.6c-7.1,0-12.4-2.3-16.2-7.2c-3.7-4.7-5.3-9.9-5.3-15.9c0-6.1,1.6-11.5,5.3-15.9c4-4.9,9.1-7.2,16.3-7.2
			c4.6,0,7.7,0.6,11.3,2.9c3.8,2.3,6.9,6.1,8,11L884.8,216.5z"/>
		<path class="st0" d="M904.3,238.8c-3.7-4.5-5.3-9.9-5.3-15.8c0-6.1,1.7-11.6,5.3-15.9c3.9-4.7,10.1-7.2,16.5-7.2
			c6.4,0,12.5,2.4,16.5,7.2c3.8,4.6,5.3,10,5.3,15.9c0,6.1-1.5,11.2-5.3,15.8c-4,4.9-10,7.3-16.5,7.3
			C914.3,246.1,908.2,243.6,904.3,238.8z M929.5,213.1c-1.9-2.7-5.3-4-8.7-4c-3.6,0-6.8,1.3-8.7,4c-2.1,2.7-2.7,6.3-2.7,9.9
			c0,3.6,0.6,7.2,2.7,9.9c1.9,2.7,5.2,4,8.7,4c3.5,0,6.8-1.4,8.7-4c2-2.7,2.8-6.3,2.8-9.9C932.3,219.4,931.5,215.7,929.5,213.1z"/>
	</g>
</g>
</svg>
