<?xml version="1.0" encoding="utf-8"?>
<!-- Generator: Adobe Illustrator 24.0.1, SVG Export Plug-In . SVG Version: 6.00 Build 0)  -->
<svg version="1.1" id="Layer_1" xmlns="http://www.w3.org/2000/svg" xmlns:xlink="http://www.w3.org/1999/xlink" x="0px" y="0px"
	 width="300px" height="270.6px" viewBox="0 0 300 270.6" style="enable-background:new 0 0 300 270.6;" xml:space="preserve">
<style type="text/css">
	.st0{fill:#FFFFFF;}
	.st1{display:none;fill:#FFFFFF;}
</style>
<g>
	<g>
		<g>
			<g>
				<path class="st0" d="M179,47.3v7.8c0.4,0.5,0.9,1,1.3,1.5c4.2,5.1,7.8,10.9,10.9,17v-14h28.9V47.3H179z"/>
				<g>
					<g>
						<path class="st0" d="M102.7,98.8c-6.1,10.7-12.9,18.7-22.8,18.7v12.3c8.6,0,16.1-3.3,22.8-10.1V98.8z"/>
						<path class="st0" d="M190.6,85.8c-4.5-8.9-9.1-18.2-15-25.3c-7.4-8.9-15.7-13.2-25.5-13.2c-8.6,0-16.1,3.3-22.8,10.1v20.8
							c6.1-10.7,12.9-18.7,22.8-18.7c13.8,0,21.5,15.4,29.6,31.7c4.5,8.9,9.1,18.2,15,25.3c7.4,8.9,15.7,13.2,25.5,13.2v-12.3
							C206.4,117.5,198.8,102.2,190.6,85.8z"/>
					</g>
					<path class="st0" d="M190,120.6c-4.2-5.1-7.8-10.9-10.9-17v14h-22.8h-35.1v-14V55.1v-7.8H91.3H79.9v12.3h11.4h17.5v14V122v7.8
						h47.3h35.1V122C190.8,121.6,190.4,121.1,190,120.6z"/>
				</g>
			</g>
		</g>
		<g>
			<path class="st0" d="M238.6,177.2H61.4V0h177.2V177.2z M73.7,164.9h152.6V12.3H73.7V164.9z"/>
		</g>
	</g>
	<g>
		<g>
			<g>
				<g>
					<path class="st0" d="M91.8,201.7v7.2h-7.4v-7.2H91.8z M91.8,214.8v37.9h-7.4v-37.9H91.8z"/>
					<path class="st0" d="M136.1,214.8v39c0,6.7-1.8,10.8-6.3,13.8c-3.8,2.5-7.7,3-11.4,3c-3.4,0-7.2-1.1-9.8-3.2
						c-2-1.1-4-3-5.3-5.1l6.8-3.3c0.4,0.8,1.1,1.5,1.8,2c1.6,1.7,4.3,2.5,6.5,2.5c2.7,0,5.5-0.8,7.4-2.3c2.3-1.8,2.9-3.9,2.8-7.7
						V250c-3,2.5-6.8,3.8-11.1,3.8c-5.1,0-10-2.2-13.1-6.1c-3.2-3.9-4.3-8.8-4.3-13.9c0-5.1,1.3-10.1,4.3-14c3.2-3.9,8.1-6,13.3-6
						c4.6,0,8.8,1.7,11.9,4.6v-3.6H136.1z M126.8,243.7c2-2.5,2.9-6.2,2.9-9.9c0-3.8-0.8-7.4-2.9-9.9c-1.8-2.4-4.7-3.4-7.9-3.4
						c-3.5,0-6.5,1.1-8.4,3.9c-1.8,2.4-2.5,5.8-2.5,9.5c0,3.6,0.6,7,2.4,9.4c1.9,2.7,5.1,3.9,8.2,3.9
						C121.9,247.1,124.8,246,126.8,243.7z"/>
					<path class="st0" d="M154,201.7v7.2h-7.4v-7.2H154z M154,214.8v37.9h-7.4v-37.9H154z"/>
					<path class="st0" d="M175,237.4c0,3.1-0.1,5.3,0.8,6.8c0.9,1.6,2.6,2.4,4.3,2.5c2,0.2,4.3,0.1,6.2-0.3v6.2
						c-2.7,0.7-7,0.7-9.6,0.3c-3.4-0.6-5.8-1.8-7.5-4.8c-1.8-2.9-1.5-6.2-1.5-10.4v-17.1h-7.3v-5.9h7.3v-10.5h7.3v10.5h11.3v5.9H175
						L175,237.4L175,237.4z"/>
					<path class="st0" d="M218.6,252.7v-5.4c-3.6,4.8-7.9,6.5-14,6.5c-7.4,0-12.5-4.5-12.5-11.6c0-4.8,1.9-8.4,6.7-10.7
						c4.7-2.3,12.4-3,18.9-4c-0.4-4.4-3.6-6.8-8.5-6.8c-3.9,0-7.4,1.1-10.3,4.3l-4.4-4.8c3.9-4.3,8.9-6.4,15.4-6.4
						c3.9,0,7.9,1.6,10.5,3.9c3.5,3,4.7,7.5,4.7,12.1v23H218.6z M217.7,233.5c-4.2,0.6-8.4,1.4-11.3,2c-3.8,0.8-7,2.8-7,6.1
						c0,3.5,2.9,5.9,6.7,5.9c4.6,0,8.2-2,10.2-5.4C217.8,239.7,217.7,236.8,217.7,233.5z"/>
					<path class="st0" d="M234.2,252.7v-51.6h7.4v51.6H234.2z"/>
					<path class="st0" d="M259.5,201.7v7.2h-7.4v-7.2H259.5z M259.5,214.8v37.9h-7.4v-37.9H259.5z"/>
					<path class="st0" d="M292.8,226.5c-1.6-4.3-5.2-6.2-9.4-6.2c-3.8-0.1-7.6,1.6-7.6,4.2c0,2.4,2.1,3.2,5.2,4.1
						c2.1,0.6,4.4,1.3,7.4,2.1c6.7,1.8,11.6,5.5,11.6,11.7c0,3.5-2,7.1-5.1,9c-3.2,2-6.5,2.5-10.2,2.5c-5,0-9.4-1.1-12.8-4.7
						c-2.3-2.4-3.4-4.9-4.1-7.3l6.7-1.9c0.6,1.8,1.4,3.5,2.7,4.7c2,2,4.8,2.7,7.6,2.7c2,0,5-0.5,6.5-1.6c1.3-0.9,2-2,2-3.5
						c0-3-3.2-3.9-6.6-4.9c-5.4-1.6-6.9-2-8.8-2.6c-2.3-0.8-4.8-2-6.5-3.8c-1.6-1.8-2.3-4.4-2.3-6.2c0-4.4,2.8-7.9,6.5-9.6
						c2.8-1.2,5.5-1.4,8.2-1.4c2.6,0,5.5,0.6,8,1.9c3.7,1.8,6.7,5.3,7.9,9.1L292.8,226.5z"/>
				</g>
			</g>
			<g>
				<g>
					<path class="st0" d="M5.7,241.9c-1.7,2.5-3.4,3.8-5.7,3.8v7c2,0,3.9-0.5,5.7-1.4V241.9z"/>
					<path class="st0" d="M69,208.9c-4-4.5-9.8-6.7-16.5-6.7H35.2v18.2c1.1,0.9,2.1,1.8,3.1,3c1.8,2.1,3.2,4.5,4.5,7v-21.2l9.8-0.1
						c4.4,0.1,8.1,1.3,11,4.6c3,3.5,4.2,8.6,4.1,13.8c-0.1,5.1-1.1,10.1-4.1,13.6c-2.8,3.1-6.8,4.5-11.1,4.6h-1.8l0,0
						c-3.9,0-6.2-4.1-9.6-10.8c-1.7-3.3-3.3-6.7-5.6-9.4c-2.9-3.5-6.3-5.2-10.2-5.2c-2,0-3.9,0.5-5.7,1.4v9.4
						c1.7-2.5,3.4-3.8,5.7-3.8c3.9,0,6.2,4.1,9.6,10.8c1.7,3.3,3.3,6.7,5.6,9.4c2.9,3.5,6.3,5.2,10.2,5.2l0,0h1.8
						c6.3,0,12.4-2.1,16.6-6.7c4.3-4.6,6.4-11.7,6.4-18.5C75.5,220.6,73.6,213.7,69,208.9z"/>
				</g>
				<path class="st0" d="M40.8,252.7c-1.1-0.8-2.1-1.8-3-3c-0.1-0.2-0.3-0.3-0.4-0.4c0-0.1-0.1-0.1-0.1-0.2
					c-0.1-0.1-0.2-0.2-0.3-0.3c0-0.1-0.1-0.1-0.1-0.2c-0.1-0.1-0.2-0.2-0.2-0.3c0-0.1-0.1-0.1-0.1-0.2c-0.1-0.1-0.1-0.2-0.2-0.3
					c0-0.1-0.1-0.1-0.1-0.2c-0.1-0.1-0.1-0.2-0.2-0.3c0-0.1-0.1-0.1-0.1-0.2c-0.1-0.1-0.1-0.2-0.2-0.3c0-0.1-0.1-0.1-0.1-0.2
					c-0.1-0.1-0.1-0.2-0.2-0.3c0-0.1-0.1-0.1-0.1-0.2c-0.1-0.1-0.2-0.3-0.3-0.4h-6.2H16.2V245v-24.5h-0.7H2.9H0v7h2.9h6.3v0.8v24.5
					h0.7h19H38l0,0L40.8,252.7L40.8,252.7z"/>
			</g>
		</g>
	</g>
	<polyline class="st1" points="279.1,177.2 20.8,177.2 0.1,201.7 300,201.7 	"/>
</g>
</svg>
