<svg fill="#ffffff" version="1.1" id="Layer_1" xmlns="http://www.w3.org/2000/svg" xmlns:xlink="http://www.w3.org/1999/xlink" x="0px" y="0px"
	 width="816.3px" height="816.3px" viewBox="0 0 816.3 816.3" style="enable-background:new 0 0 816.3 816.3;" xml:space="preserve"
	>
<g>
	<path class="st0" d="M189.9,551.3C159,582.7,124.5,598,84.9,598v-56.6c45.8,0,77.1-37.1,105.1-86.1V551.3z M595.1,395.5
		c-20.6-41.2-41.9-83.8-69.2-116.6c-34-40.8-72.5-60.7-117.7-60.7c-39.7,0-74.2,15.3-105.1,46.7v96c28-49,59.2-86.1,105.1-86.1
		c63.3,0,98.8,70.9,136.3,146c20.6,41.2,41.9,83.8,69.2,116.6c34,40.8,72.5,60.7,117.7,60.7v-56.6
		C668.1,541.5,632.6,470.6,595.1,395.5z"/>
</g>
<g>
	<path class="st0" d="M731.4,218.2v56.6H598v64.4c-14.9-28-31.1-55.1-50.5-78.4c-2-2.4-4-4.7-6.1-7v-35.6H731.4z M592,555.5
		c-19.4-23.3-35.6-50.4-50.5-78.4v64.4H436.4H274.8v-64.4V253.8v-35.6H137.4H84.9v56.6h52.5h80.8v64.4v223.3V598h218.2H598v-35.6
		C596,560.2,594,557.9,592,555.5z"/>
</g>
<g>
	<path class="st0" d="M816.3,816.3H0V0h816.3V816.3z M56.6,759.7h703.1V56.6H56.6V759.7z"/>
</g>
</svg>
