<svg version="1.1" id="Layer_1" fill="currentColor" xmlns="http://www.w3.org/2000/svg" xmlns:xlink="http://www.w3.org/1999/xlink" x="0px" y="0px"
	 width="256px" height="256px" viewBox="0 0 256 256" style="enable-background:new 0 0 256 256;" xml:space="preserve">
<g>
	<g>
		<g>
			<path class="st0" d="M169.8,68.4v11.2c0.6,0.7,1.3,1.4,1.9,2.2c6.1,7.3,11.2,15.8,15.8,24.6V86.2h41.8V68.4H169.8z"/>
			<g>
				<g>
					<path class="st0" d="M59.6,142.8c-8.8,15.4-18.6,27-33,27v17.7c12.4,0,23.3-4.8,33-14.6V142.8z"/>
					<path class="st0" d="M186.6,124c-6.5-12.9-13.1-26.3-21.7-36.6c-10.7-12.8-22.7-19-36.9-19c-12.4,0-23.3,4.8-33,14.6v30.1
						c8.8-15.4,18.6-27,33-27c19.9,0,31,22.2,42.8,45.8c6.5,12.9,13.1,26.3,21.7,36.6c10.7,12.8,22.7,19,36.9,19v-17.7
						C209.5,169.8,198.4,147.6,186.6,124z"/>
				</g>
				<path class="st0" d="M185.7,174.2c-6.1-7.3-11.2-15.8-15.8-24.6v20.2h-33H86.2v-20.2v-70V68.4H43.1H26.6v17.7h16.5h25.3v20.2v70
					v11.2h68.4h50.7v-11.2C186.9,175.7,186.3,175,185.7,174.2z"/>
			</g>
		</g>
	</g>
	<g>
		<path class="st0" d="M256,256H0V0h256V256z M17.7,238.3h220.5V17.7H17.7V238.3z"/>
	</g>
</g>
</svg>
