<?xml version="1.0" encoding="utf-8"?>
<!-- Generator: Adobe Illustrator 16.0.0, SVG Export Plug-In . SVG Version: 6.00 Build 0)  -->
<!DOCTYPE svg PUBLIC "-//W3C//DTD SVG 1.1//EN" "http://www.w3.org/Graphics/SVG/1.1/DTD/svg11.dtd">
<svg version="1.1" id="Layer_1" xmlns="http://www.w3.org/2000/svg" xmlns:xlink="http://www.w3.org/1999/xlink" x="0px" y="0px"
	 width="1169.348px" height="902.579px" viewBox="0 0 1169.348 902.579" enable-background="new 0 0 1169.348 902.579"
	 xml:space="preserve">
<g>
	<path d="M1165.104,0v39.045H990.551v126.517c-12.263-23.976-25.025-47.72-39.045-69.756V0H1165.104L1165.104,0z"/>
	<polygon points="175.187,261.618 175.187,388.159 0.63,388.159 0.63,427.204 214.231,427.204 214.231,331.382 	"/>
	<path d="M990.551,331.379v95.829H563.342V39.045H214.234v126.528c-12.262-23.976-25.024-47.72-39.044-69.756V0h427.196v388.165
		h349.119V261.611C963.756,285.6,976.519,309.343,990.551,331.379z"/>
	<path d="M1165.104,388.164v39.045c-49.685,0-92.28-22.133-130.227-67.681c-8.725-10.469-16.96-21.864-24.806-33.908
		c-3.318-5.075-6.577-10.273-9.762-15.568c-3.318-5.491-6.563-11.079-9.76-16.741c-12.971-22.975-25.074-47.171-36.983-70.964
		c-0.684-1.389-1.378-2.768-2.062-4.147c-3.27-6.516-6.516-12.995-9.761-19.425c-3.246-6.406-6.505-12.75-9.762-19.01
		C891.878,102.931,848.94,39.045,776.951,39.045c-71.988,0-114.936,63.911-155.043,140.755v-78.211
		c7.858-12.031,16.083-23.439,24.818-33.908C684.673,22.146,727.269,0,776.951,0c49.685,0,92.292,22.146,130.238,67.681
		c8.726,10.469,16.938,21.853,24.794,33.871c3.307,5.088,6.564,10.286,9.761,15.581c3.307,5.479,6.553,11.067,9.762,16.729
		c12.97,22.988,25.075,47.195,36.982,71.012c0.684,1.367,1.366,2.733,2.063,4.1c3.257,6.516,6.503,12.994,9.76,19.425
		c3.234,6.406,6.492,12.75,9.762,19.01C1050.166,324.267,1093.116,388.164,1165.104,388.164z"/>
	<path d="M543.82,247.445v78.198c-7.846,12.031-16.069,23.429-24.793,33.885c-37.946,45.546-80.554,67.68-130.226,67.68
		c-49.697,0-92.292-22.146-130.238-67.68c-8.724-10.47-16.959-21.865-24.806-33.896c-3.318-5.088-6.576-10.286-9.761-15.581
		c-3.319-5.479-6.564-11.067-9.762-16.729c-12.982-22.987-25.073-47.182-36.982-70.987c-0.695-1.378-1.378-2.757-2.062-4.124
		c-3.257-6.517-6.516-13.007-9.761-19.425c-3.246-6.406-6.491-12.75-9.761-19.01C115.562,102.943,72.613,39.045,0.625,39.045V0
		c49.696,0,92.292,22.146,130.238,67.681c8.725,10.469,16.948,21.865,24.805,33.884c3.319,5.088,6.564,10.285,9.761,15.581
		c3.306,5.478,6.564,11.066,9.761,16.728c12.97,22.988,25.074,47.183,36.982,71c0.684,1.366,1.379,2.745,2.062,4.112
		c3.258,6.516,6.504,12.995,9.762,19.425c3.246,6.405,6.492,12.749,9.761,19.009c40.094,76.846,83.043,140.744,155.044,140.744
		C460.777,388.164,503.726,324.278,543.82,247.445z"/>
</g>
<g>
	<g>
		<path d="M578.207,789.614l-23.445,76.73h-6.252l-20.32-66.642l-20.319,66.642h-6.251l-23.446-76.73h6.252l20.32,66.5l20.319-66.5
			h6.252l20.32,66.5l20.461-66.5H578.207z"/>
		<path d="M647.125,845.174l4.974,2.841c-3.411,7.39-8.385,12.503-14.067,15.772c-5.827,3.269-12.362,4.688-19.041,4.688
			c-10.657,0-20.604-4.263-26.857-12.361c-6.394-8.241-8.24-18.615-8.24-28.135c0-9.662,1.847-19.894,8.24-28.276
			c6.538-8.243,16.058-12.22,26.857-12.22c10.799,0,20.319,3.977,26.855,12.22c6.11,8.099,8.099,19.039,8.099,29.981h-63.658
			c0.284,8.241,1.99,16.482,6.678,22.735c4.975,6.679,13.357,10.088,22.026,10.088c5.967,0,11.651-1.278,16.625-4.263
			C640.162,855.404,644.142,851.142,647.125,845.174z M590.429,823.716h56.979c-0.711-7.956-2.415-14.777-6.535-20.177
			c-4.975-6.68-13.357-10.23-21.883-10.089c-8.669-0.142-17.052,3.409-22.026,10.089
			C592.844,809.08,590.855,816.328,590.429,823.716z"/>
		<path d="M738.634,827.836c0,9.663-1.848,19.895-8.101,28.137c-6.536,8.24-15.913,12.503-26.714,12.503
			c-10.799,0-20.035-4.688-26.003-13.214c-0.994-1.421-1.848-2.984-2.7-4.548v15.631h-5.541V764.036h5.969v40.213
			c0.71-1.421,1.42-2.558,2.272-3.837c6.11-8.384,16.341-12.929,27.141-12.929c10.229,0,19.608,4.545,25.576,12.361
			C736.786,807.943,738.634,818.317,738.634,827.836z M732.239,827.836c0-8.808-1.563-17.761-6.679-24.297
			c-4.974-6.68-13.216-10.089-21.741-10.089c-8.668,0-17.051,3.268-22.023,10.089c-4.974,6.536-6.68,15.489-6.68,24.297
			c0,8.813,1.706,17.906,6.68,24.441c4.973,6.679,13.355,10.23,22.023,10.23c8.525,0,16.768-3.694,21.741-10.372
			C730.676,845.6,732.239,836.648,732.239,827.836z"/>
		<path d="M819.061,764.036v102.309h-5.542v-15.631c-0.853,1.563-1.705,3.127-2.699,4.548c-5.968,8.525-15.205,13.214-26.004,13.214
			s-20.178-4.263-26.714-12.503c-6.253-8.242-8.099-18.474-8.099-28.137c0-9.519,1.846-19.893,8.099-27.991
			c5.968-7.816,15.347-12.361,25.577-12.361c10.8,0,21.03,4.545,27.141,12.929c0.852,1.279,1.563,2.416,2.272,3.837v-40.213H819.061
			z M813.519,827.836c0-8.808-1.705-17.761-6.678-24.297c-4.975-6.821-13.357-10.089-22.025-10.089
			c-8.525,0-16.768,3.409-21.74,10.089c-5.116,6.536-6.679,15.489-6.679,24.297c0,8.813,1.563,17.764,6.679,24.3
			c4.973,6.678,13.215,10.372,21.74,10.372c8.668,0,17.051-3.552,22.025-10.23C811.813,845.742,813.519,836.648,813.519,827.836z"/>
		<path d="M897.924,845.174l4.975,2.841c-3.41,7.39-8.385,12.503-14.068,15.772c-5.826,3.269-12.361,4.688-19.04,4.688
			c-10.658,0-20.604-4.263-26.856-12.361c-6.396-8.241-8.24-18.615-8.24-28.135c0-9.662,1.845-19.894,8.24-28.276
			c6.536-8.243,16.056-12.22,26.856-12.22c10.799,0,20.319,3.977,26.855,12.22c6.109,8.099,8.099,19.039,8.099,29.981h-63.658
			c0.284,8.241,1.99,16.482,6.679,22.735c4.974,6.679,13.356,10.088,22.025,10.088c5.968,0,11.65-1.278,16.624-4.263
			C890.962,855.404,894.94,851.142,897.924,845.174z M841.229,823.716h56.98c-0.712-7.956-2.416-14.777-6.536-20.177
			c-4.974-6.68-13.357-10.23-21.883-10.089c-8.669-0.142-17.052,3.409-22.025,10.089
			C843.645,809.08,841.655,816.328,841.229,823.716z"/>
		<path d="M971.245,811.07c-4.405-11.794-13.926-17.62-25.72-17.62c-11.083-0.284-21.457,4.689-21.457,13.499
			c0,7.958,5.259,11.368,14.637,13.925c3.694,1.138,8.951,2.558,16.483,4.548c11.935,3.126,22.024,10.089,22.024,21.599
			c0,5.825-3.552,12.787-9.094,16.198c-5.827,3.837-13.926,5.115-21.457,5.115c-7.814,0-14.919-1.848-22.025-7.53
			c-3.552-2.842-6.819-7.674-8.524-11.652l5.684-2.559c1.705,3.838,3.552,6.68,7.104,9.806c4.406,3.837,10.801,5.968,17.479,5.968
			c6.537,0,13.926-1.279,18.33-4.263c3.838-2.558,6.11-6.821,6.11-11.511c0-8.951-8.099-12.646-18.045-15.487
			c-3.554-1.137-8.101-2.415-14.068-4.12c-4.974-1.422-10.23-2.701-14.92-6.537c-4.404-3.552-6.11-8.668-6.11-13.499
			c0-6.963,5.258-13.499,11.793-16.482c5.259-2.416,10.801-3.127,16.2-2.983c5.399,0,11.082,1.136,16.056,3.694
			c7.247,3.694,13.926,11.509,15.631,18.471L971.245,811.07z"/>
		<path d="M1000.374,765.458v9.095h-5.967v-9.095H1000.374z M1000.374,789.614v76.73h-5.967v-76.73H1000.374z"/>
		<path d="M1086.483,789.614v72.468c0,17.193-1.848,24.725-10.09,31.972c-7.246,6.253-16.624,8.525-25.435,8.525
			c-10.941,0-20.888-4.121-27.282-12.647c-1.137-1.42-1.99-2.841-2.842-4.404l5.542-2.699c0.568,1.278,1.278,2.416,2.131,3.41
			c5.116,6.82,13.642,10.23,22.451,10.23c7.815,0,15.772-1.989,21.456-6.962c6.82-5.969,7.958-12.506,7.958-27.425v-10.23
			l-2.132,3.41c-5.968,8.525-15.204,13.214-26.003,13.214c-10.8,0-20.179-4.263-26.714-12.503c-6.253-8.242-8.1-18.474-8.1-28.137
			c0-9.519,1.847-19.893,8.1-27.991c5.968-7.816,15.346-12.361,25.576-12.361c10.8,0,21.03,4.545,27.141,12.929
			c0.994,1.423,1.848,2.984,2.7,4.69v-15.488H1086.483z M1080.941,827.836c0-8.808-1.706-17.761-6.679-24.297
			c-4.974-6.821-13.356-10.089-22.024-10.089c-8.525,0-16.768,3.409-21.741,10.089c-5.115,6.536-6.679,15.489-6.679,24.297
			c0,8.813,1.563,17.764,6.679,24.3c4.974,6.678,13.216,10.372,21.741,10.372c8.668,0,17.051-3.552,22.024-10.23
			C1079.235,845.742,1080.941,836.648,1080.941,827.836z"/>
		<path d="M1169.325,828.974v37.371h-5.968v-37.371c0-13.783-1.278-24.725-10.94-31.261c-4.689-2.983-10.373-4.263-16.199-3.979
			c-5.684,0.284-11.226,2.274-15.204,6.11c-4.12,3.694-6.679,9.094-7.675,14.777c-0.709,3.127-0.993,6.252-0.993,9.52v42.203h-5.969
			v-76.73h5.543v12.504c1.419-2.415,3.126-4.547,5.114-6.537c5.115-4.831,12.078-7.246,18.899-7.53
			c6.678-0.567,13.782,0.853,19.751,4.831C1167.336,800.84,1169.61,814.479,1169.325,828.974z"/>
	</g>
	<g>
		<path d="M162.575,492.997V724.79h-25.433v-20.282c-13.843,16.74-34.446,25.111-57.625,25.111
			c-23.824,0-45.715-9.981-60.202-28.009C4.829,683.26,0,660.402,0,637.546c0-22.857,5.472-46.036,19.315-63.743
			c14.166-18.028,36.378-27.688,59.879-27.688c20.926,0,40.886,7.728,54.729,21.248v-74.366H162.575z M137.143,637.546
			c0-17.707-3.862-35.412-13.843-47.646c-9.014-11.911-23.823-17.707-39.597-17.707c-16.741,0-31.871,6.117-41.208,19.317
			c-8.692,11.911-12.233,28.651-12.233,46.036s3.219,34.447,11.911,46.357c9.336,13.201,25.11,19.316,40.885,19.316
			c16.097,0,30.906-5.795,40.241-17.705C133.281,673.602,137.143,655.574,137.143,637.546z"/>
		<path d="M239.521,492.033v29.617h-28.653v-29.617H239.521z M239.521,550.944V724.79h-28.653V550.944H239.521z"/>
		<path d="M440.728,550.944v175.133c0,32.837-7.083,51.188-27.365,65.352c-17.062,12.234-36.057,15.454-53.44,15.454
			c-18.029,0-36.701-6.439-49.255-18.351c-7.405-4.507-15.132-11.591-19.639-19.638l26.399-12.878
			c1.932,3.22,4.507,6.117,7.405,9.016c8.37,9.657,22.536,14.164,35.091,14.164c13.843,0,28.008-3.541,37.666-11.59
			c11.912-9.979,14.487-20.604,14.487-41.851v-17.385c-13.521,14.165-32.837,21.248-54.407,21.248
			c-23.501,0-45.714-9.981-60.201-28.009c-14.487-18.351-19.316-41.208-19.316-64.064c0-22.857,5.473-46.036,19.316-63.743
			c14.165-18.028,36.378-27.688,60.201-27.688c22.214,0,43.462,8.693,57.627,24.469v-19.64H440.728z M415.295,637.546
			c0-17.707-3.864-35.412-13.522-47.646c-9.335-11.911-23.822-17.707-39.597-17.707c-17.062,0-31.871,6.117-41.207,19.317
			c-9.015,11.911-12.233,28.651-12.233,46.036s2.896,34.447,11.911,46.357c9.336,13.201,24.789,19.316,40.563,19.316
			c16.096,0,30.906-5.795,40.563-17.705C411.431,673.602,415.295,655.574,415.295,637.546z"/>
		<path d="M517.673,492.033v29.617h-28.652v-29.617H517.673z M517.673,550.944V724.79h-28.652V550.944H517.673z"/>
		<path d="M610.711,657.827c0,14.166-0.966,23.823,3.541,31.228c3.862,7.727,11.912,11.59,20.282,12.233
			c9.014,0.965,19.638,0.322,28.651-1.287v24.789c-11.911,3.219-29.296,3.219-40.885,1.608
			c-15.453-2.574-26.398-8.691-34.125-22.213c-7.405-12.556-6.116-27.042-6.116-45.071v-84.667h-35.413v-23.503h35.413v-48.289
			h28.651v48.289h52.475v23.503h-52.475V657.827z"/>
		<path d="M812.565,724.79v-26.4c-16.096,22.858-37.344,31.229-66.318,31.229c-33.803,0-57.304-20.604-57.304-52.798
			c0-22.213,9.015-37.666,30.584-48.612c21.569-10.623,56.017-13.521,89.497-18.672c-0.965-24.145-18.028-36.056-42.174-36.056
			c-18.028,0-34.769,4.507-48.934,21.247l-18.027-19.316c18.027-20.604,41.207-29.297,69.859-29.297
			c17.706,0,35.412,6.762,47.002,17.063c16.097,13.521,21.247,34.447,21.247,55.372V724.79H812.565z M809.346,633.038
			c-24.145,3.864-43.782,7.083-56.016,9.98c-19.638,4.186-35.735,14.487-35.735,31.228c0,18.35,14.487,30.262,34.125,30.262
			c22.858,0,41.207-9.658,50.865-27.043C809.346,665.231,809.346,652.033,809.346,633.038z"/>
		<path d="M879.852,724.79V488.169h28.652V724.79H879.852z"/>
		<path d="M985.447,492.033v29.617h-28.653v-29.617H985.447z M985.447,550.944V724.79h-28.653V550.944H985.447z"/>
		<path d="M1141.262,603.1c-8.37-21.571-25.754-31.229-47.002-31.549c-19.316-0.646-38.311,8.046-38.311,22.212
			c0,12.878,10.302,17.707,26.076,21.893c9.337,2.896,19.961,5.793,34.77,9.657c29.939,8.048,52.475,25.11,52.475,52.475
			c0,15.453-9.014,31.55-22.856,39.92c-13.843,9.336-30.262,11.912-47.003,11.912c-21.569,0-40.563-5.151-56.338-20.604
			c-9.979-9.98-15.774-21.247-18.995-31.871l26.078-7.727c2.897,8.048,7.082,15.774,13.198,21.569
			c9.336,9.015,22.536,12.878,36.057,12.878c10.624,0,25.111-2.576,32.516-7.727c6.761-4.508,10.303-10.946,10.303-18.673
			c0-15.453-15.454-20.603-32.838-25.755c-20.604-5.794-28.652-8.047-37.987-10.945c-10.624-3.862-22.535-8.37-30.907-17.063
			c-8.047-7.727-11.267-19.959-11.267-28.974c0-18.994,12.555-34.768,28.974-42.173c12.877-5.474,25.433-6.761,37.345-6.44
			c12.232,0,25.11,2.576,36.7,8.372c16.741,8.37,30.905,25.109,36.378,41.852L1141.262,603.1z"/>
	</g>
</g>
</svg>
